#!OML:ASF E:\acrobat2\Project_11_07_03\Capture day 1\Session 1\Acrobat.ASF
:FULLY-SPECIFIED
:DEGREES
62
root 8.36628 18.4165 5.90792 2.98913 -1.20904 0.157396
lowerback -7.52002 0.355395 -1.31433
upperback -2.62009 0.600831 -1.69095
thorax 1.51522 0.297528 -0.950629
lowerneck 0.967533 -1.86621 -2.02143
upperneck 12.7038 -3.03758 5.21696
head 4.13215 -1.3889 2.01073
rclavicle 2.43511e-015 4.77083e-015
rhumerus -43.3456 -7.09093 -73.169
rradius 25.4513
rwrist 0.690153
rhand -3.76324 -35.7981
rfingers 7.12502
rthumb 21.9813 -64.5691
lclavicle 2.43511e-015 4.77083e-015
lhumerus -37.7662 -6.04407 78.7411
lradius 19.8363
lwrist 11.2938
lhand -10.6314 -11.2834
lfingers 7.12502
lthumb 15.3755 18.1249
rfemur 4.87327 6.37974 19.3492
rtibia 1.36875
rfoot -19.1254 -24.8625
rtoes 0.687653
lfemur 2.60888 3.94523 -14.9265
ltibia 3.25355
lfoot -8.38595 -3.80745
ltoes 29.1507
63
root 8.36228 18.4171 5.91434 2.97384 -1.11708 0.248906
lowerback -7.43335 0.337614 -1.32563
upperback -2.71745 0.573737 -1.69218
thorax 1.36656 0.284587 -0.948715
lowerneck 0.916758 -1.89205 -2.279
upperneck 12.814 -3.09664 5.45654
head 4.19792 -1.41875 2.13939
rclavicle -1.93815e-015 -2.38542e-015
rhumerus -43.5462 -6.84855 -73.2864
rradius 25.5835
rwrist 0.64806
rhand -3.766 -36.0192
rfingers 7.12502
rthumb 21.9787 -64.7906
lclavicle -1.93815e-015 -2.38542e-015
lhumerus -37.6886 -5.49089 78.5198
lradius 19.6054
lwrist 11.0036
lhand -10.8307 -11.432
lfingers 7.12502
lthumb 15.1836 17.9909
rfemur 4.97257 6.56196 19.2995
rtibia 1.23062
rfoot -19.1689 -25.1558
rtoes 0.899127
lfemur 2.63655 3.97736 -15.0086
ltibia 3.2061
lfoot -8.31417 -3.88392
ltoes 29.0778
64
root 8.35879 18.4167 5.91961 2.96872 -1.02036 0.365032
lowerback -7.35073 0.288053 -1.38495
upperback -2.78974 0.507905 -1.66782
thorax 1.24506 0.25252 -0.896508
lowerneck 0.94619 -1.91751 -2.53505
upperneck 12.845 -3.1386 5.57221
head 4.21547 -1.44722 2.22534
rclavicle -1.63997e-015 5.56597e-015
rhumerus -43.5726 -6.61457 -73.3615
rradius 25.6206
rwrist 0.577327
rhand -3.63125 -36.226
rfingers 7.12502
rthumb 22.108 -64.9821
lclavicle -1.63997e-015 5.56597e-015
lhumerus -37.5779 -5.03753 78.3961
lradius 19.3843
lwrist 10.8104
lhand -10.7998 -11.17
lfingers 7.12502
lthumb 15.2133 18.2507
rfemur 5.05952 6.60192 19.1972
rtibia 1.19383
rfoot -19.3876 -25.1827
rtoes 1.44234
lfemur 2.62691 4.0042 -15.1251
ltibia 3.21782
lfoot -8.17816 -3.97713
ltoes 29.3616
65
root 8.35484 18.4168 5.92706 2.95922 -0.908415 0.384479
lowerback -7.32015 0.247842 -1.35355
upperback -2.84072 0.449724 -1.62623
thorax 1.1752 0.223815 -0.876383
lowerneck 1.02156 -1.91065 -2.5478
upperneck 12.8415 -3.12831 5.56004
head 4.199 -1.44439 2.224
rclavicle 6.4605e-015 -9.93923e-015
rhumerus -43.498 -6.52016 -73.3832
rradius 25.4704
rwrist 0.600852
rhand -3.41759 -36.4652
rfingers 7.12502
rthumb 22.3131 -65.1968
lclavicle 6.4605e-015 -9.93923e-015
lhumerus -37.521 -4.91487 78.3831
lradius 19.3127
lwrist 10.8671
lhand -10.8039 -10.9406
lfingers 7.12502
lthumb 15.2094 18.4803
rfemur 5.15748 6.5408 19.2109
rtibia 1.17275
rfoot -19.5278 -25.1538
rtoes 1.48775
lfemur 2.6309 4.06972 -15.1116
ltibia 3.22789
lfoot -8.04683 -3.99574
ltoes 28.9436
66
root 8.35144 18.416 5.93651 2.92389 -0.816525 0.371696
lowerback -7.33626 0.253892 -1.23909
upperback -2.86892 0.449923 -1.6362
thorax 1.15609 0.223422 -0.950903
lowerneck 0.932504 -1.94503 -2.40069
upperneck 12.9968 -3.1734 5.45337
head 4.26797 -1.46097 2.16004
rclavicle 6.75868e-015 2.46493e-014
rhumerus -43.4615 -6.63172 -73.3906
rradius 25.2928
rwrist 0.833078
rhand -3.23264 -36.6924
rfingers 7.12502
rthumb 22.4907 -65.4027
lclavicle 6.75868e-015 2.46493e-014
lhumerus -37.5232 -4.92108 78.3444
lradius 19.3846
lwrist 10.9492
lhand -10.858 -10.7991
lfingers 7.12502
lthumb 15.1573 18.6258
rfemur 5.28714 6.65938 19.2881
rtibia 1.04324
rfoot -19.5487 -25.4154
rtoes 1.25661
lfemur 2.70248 4.09236 -15.0627
ltibia 3.20361
lfoot -7.99082 -4.06765
ltoes 28.6668
